<?xml version="1.0" encoding="utf-8"?>
<!-- Generator: Adobe Illustrator 26.5.0, SVG Export Plug-In . SVG Version: 6.00 Build 0)  -->
<svg version="1.1" id="Layer_1" xmlns="http://www.w3.org/2000/svg" xmlns:xlink="http://www.w3.org/1999/xlink" x="0px" y="0px"
	 viewBox="0 0 119 34" style="enable-background:new 0 0 119 34;" xml:space="preserve">
<style type="text/css">
	.st0{fill:#BEE6DA;}
	.st1{font-family:'CooperBlack';}
	.st2{font-size:18.3801px;}
	.st3{fill:#2EAFA3;}
</style>
<text transform="matrix(1 0 0 1 30.6995 24.5385)" class="st0 st1 st2">R.B</text>
<path class="st3" d="M23.1,28.5L20,28.8c-0.1,0-0.2,0-0.3,0c-0.2,0.1-0.9,0-1-1.6c-0.2-2.1-0.3-10.9-4.8-12.5c-1.8-0.6-3-1-3.8-1.3
	c-0.9-0.3-1.5-1.1-1.5-2L8.3,6.1c0-1.2,0.9-2.3,2.1-2.3h8.2c1.2,0,2.2,1,2.1,2.3c0,1.1-0.1,2.4,0,2.9c0.2,1.1,0.6,1.5,0.7,1.7
	c0.1,0.1-0.8,0.3-1.7,0.5c-1.4,0.4-2.7-0.8-2.6-2.3c0-0.2,0-0.4,0-0.6c0-1.2-0.9-2.2-2-2.2c-0.2,0-0.5,0-0.7,0c-1.1,0-2.1,0.9-2.2,2
	v0c-0.1,0.9,0.5,1.8,1.3,2.2c2.7,1.1,8.5,4.6,11.6,14.7c0.1,0.3,0.1,0.5,0.1,0.8c0,0.4-0.1,1-0.4,1.6C24.5,28.1,23.8,28.5,23.1,28.5
	z"/>
<path class="st3" d="M15.7,20.8c0,0-0.8,0.1-1.7-3.8c-0.4-1.8-2-3-3.8-2.8c-0.1,0-0.1,0-0.2,0c0,0-0.2,6.1,0,6.6
	c0,0,0.3,0.3,1.1,0.3s3.8,0,3.8,0h0.5C15.6,21.1,15.7,21,15.7,20.8L15.7,20.8z"/>
<circle class="st0" cx="12.9" cy="26.7" r="4.3"/>
<circle class="st0" cx="11.7" cy="16.3" r="0.7"/>
</svg>
